<?xml version="1.0" encoding="UTF-8" standalone="no"?>
<!-- Created with Inkscape (http://www.inkscape.org/) -->

<svg
   width="19mm"
   height="15mm"
   viewBox="0 0 19 15"
   version="1.1"
   id="svg1"
   inkscape:version="1.3.2 (091e20e, 2023-11-25, custom)"
   sodipodi:docname="relay0.svg"
   xml:space="preserve"
   xmlns:inkscape="http://www.inkscape.org/namespaces/inkscape"
   xmlns:sodipodi="http://sodipodi.sourceforge.net/DTD/sodipodi-0.dtd"
   xmlns="http://www.w3.org/2000/svg"
   xmlns:svg="http://www.w3.org/2000/svg"><sodipodi:namedview
     id="namedview1"
     pagecolor="#ffffff"
     bordercolor="#000000"
     borderopacity="0.25"
     inkscape:showpageshadow="2"
     inkscape:pageopacity="0.0"
     inkscape:pagecheckerboard="0"
     inkscape:deskcolor="#d1d1d1"
     inkscape:document-units="mm"
     inkscape:zoom="11.075084"
     inkscape:cx="58.013104"
     inkscape:cy="35.078741"
     inkscape:window-width="1920"
     inkscape:window-height="991"
     inkscape:window-x="-9"
     inkscape:window-y="-9"
     inkscape:window-maximized="1"
     inkscape:current-layer="g10"
     showguides="false" /><defs
     id="defs1" /><g
     inkscape:label="Camada 1"
     inkscape:groupmode="layer"
     id="layer1"><g
       id="g10"
       transform="matrix(1,0,0,-1,1.5645292,7.8415804)"
       style="fill:#cccccc;stroke-width:0.0926042;stroke-miterlimit:4;stroke-dasharray:none;image-rendering:auto"><path
         id="path1"
         d="m 17.389724,7.5506293 v -14.4180977 0 c 0,-0.1354233 -0.11139,-0.2452057 -0.248795,-0.2452057 v 0 H -1.2699872 v 0 c -0.1374061,0 -0.2487961,0.1097824 -0.2487961,0.2452057 v 0 14.4180977 0 c 0,0.1354233 0.11139,0.2452057 0.2487961,0.2452057 v 0 H 17.140929 v 0 c 0.137405,0 0.248795,-0.1097824 0.248795,-0.2452057 z"
         stroke="#191919"
         stroke-width="0.35 px"
         style="fill:#666666;fill-opacity:1;fill-rule:evenodd;stroke-width:0.0914909;stroke-miterlimit:4;stroke-dasharray:none"
         sodipodi:nodetypes="ccccccccccccccccc" /><g
         id="g39"><path
           id="path2"
           d="M -1.3122191,7.5506293 H 17.098697 v 0 -14.4180977 0 H -1.3122191 v 0 z"
           stroke="#191919"
           stroke-width="0.35 px"
           style="fill:#cccccc;fill-opacity:1;fill-rule:evenodd;stroke-width:0.0914909;stroke-miterlimit:4;stroke-dasharray:none"
           sodipodi:nodetypes="ccccccccc" /></g><path
         id="path3"
         d="m 17.140929,7.5506293 v 0.027454 0.027109 0.026423 0.025404 0.024066 0.022425 0.020503 0.018322 0.015912 0.013301 0.010523 0.00761 0.00461 0.00154"
         stroke="#191919"
         stroke-width="0.35 px"
         style="fill:#cccccc;fill-opacity:1;fill-rule:evenodd;stroke-width:0.0914909;stroke-miterlimit:4;stroke-dasharray:none" /><path
         id="path4"
         d="m -1.2699872,7.5506293 v 0.027454 0.027109 0.026423 0.025404 0.024066 0.022425 0.020503 0.018322 0.015912 0.013301 0.010523 0.00761 0.00461 0.00154"
         stroke="#191919"
         stroke-width="0.35 px"
         style="fill:#cccccc;fill-opacity:1;fill-rule:evenodd;stroke-width:0.0914909;stroke-miterlimit:4;stroke-dasharray:none" /><path
         id="path5"
         d="m 17.140929,-6.8674684 h 0.02785 0.0275 0.02681 0.02577 0.02442 0.02275 0.0208 0.01859 0.01614 0.01349 0.01068 0.0078 0.0047 0.0016"
         stroke="#191919"
         stroke-width="0.35 px"
         style="fill:#cccccc;fill-opacity:1;fill-rule:evenodd;stroke-width:0.0914909;stroke-miterlimit:4;stroke-dasharray:none" /><path
         id="path6"
         d="m 17.140929,7.5506293 h 0.02785 0.0275 0.02681 0.02577 0.02442 0.02275 0.0208 0.01859 0.01614 0.01349 0.01068 0.0078 0.0047 0.0016"
         stroke="#191919"
         stroke-width="0.35 px"
         style="fill:#cccccc;fill-opacity:1;fill-rule:evenodd;stroke-width:0.0914909;stroke-miterlimit:4;stroke-dasharray:none" /><path
         id="path7"
         d="m -1.2699872,7.5506293 h -0.027855 -0.027507 -0.02681 -0.025775 -0.024422 -0.02275 -0.020799 -0.01859 -0.016142 -0.013495 -0.010679 -0.00776 -0.00468 -0.00159"
         stroke="#191919"
         stroke-width="0.35 px"
         style="fill:#cccccc;fill-opacity:1;fill-rule:evenodd;stroke-width:0.0914909;stroke-miterlimit:4;stroke-dasharray:none" /><path
         id="path8"
         d="m -1.2699872,-6.8674684 h -0.027855 -0.027507 -0.02681 -0.025775 -0.024422 -0.02275 -0.020799 -0.01859 -0.016142 -0.013495 -0.010679 -0.00776 -0.00468 -0.00159"
         stroke="#191919"
         stroke-width="0.35 px"
         style="fill:#cccccc;fill-opacity:1;fill-rule:evenodd;stroke-width:0.0914909;stroke-miterlimit:4;stroke-dasharray:none" /><path
         id="path9"
         d="m -1.2699872,-6.8674684 v -0.027454 -0.027108 -0.026423 -0.025404 -0.024066 -0.022425 -0.020503 -0.018323 -0.015912 -0.013301 -0.010523 -0.00761 -0.00461 -0.00154"
         stroke="#191919"
         stroke-width="0.35 px"
         style="fill:#cccccc;fill-opacity:1;fill-rule:evenodd;stroke-width:0.0914909;stroke-miterlimit:4;stroke-dasharray:none" /><path
         id="path10"
         d="m 17.140929,-6.8674684 v -0.027454 -0.027108 -0.026423 -0.025404 -0.024066 -0.022425 -0.020503 -0.018323 -0.015912 -0.013301 -0.010523 -0.00761 -0.00461 -0.00154"
         stroke="#191919"
         stroke-width="0.35 px"
         style="fill:#cccccc;fill-opacity:1;fill-rule:evenodd;stroke-width:0.0914909;stroke-miterlimit:4;stroke-dasharray:none" /><title
         id="title10">b'Shape2DView'</title><g
         id="g5"
         transform="matrix(0.85478497,0,0,0.84958204,1.9964158,-0.16035429)"><rect
           style="fill:#373737;fill-opacity:1;stroke:none;stroke-width:0.0851508"
           id="rect12"
           width="3.2841094"
           height="0.49041149"
           x="2.2358263"
           y="-0.54179275"
           transform="scale(1,-1)" /><ellipse
           cx="1.9470361"
           cy="0.29658708"
           stroke="#191919"
           stroke-width="0.35 px"
           style="fill:#4d4d4d;stroke-width:0.0295838;stroke-miterlimit:4;stroke-dasharray:none"
           id="circle2"
           rx="0.48269251"
           ry="0.47572669" /><rect
           style="fill:#373737;fill-opacity:1;stroke:none;stroke-width:0.0630466"
           id="rect13"
           width="3.8884773"
           height="0.50354314"
           x="4.2009926"
           y="3.118854"
           transform="matrix(0.74760536,0.66414323,0.64832518,-0.76136355,0,0)"
           ry="0" /><rect
           style="fill:#373737;fill-opacity:1;stroke:none;stroke-width:0.0876931"
           id="rect14"
           width="3.4831462"
           height="0.49041149"
           x="8.017663"
           y="-2.9938502"
           transform="scale(1,-1)" /><rect
           style="fill:#373737;fill-opacity:1;stroke:none;stroke-width:0.0876931"
           id="rect15"
           width="3.4831462"
           height="0.49041149"
           x="8.017663"
           y="1.9102645"
           transform="scale(1,-1)" /><ellipse
           cx="11.480779"
           cy="2.7486444"
           stroke="#191919"
           stroke-width="0.35 px"
           style="fill:#4d4d4d;stroke-width:0.0295838;stroke-miterlimit:4;stroke-dasharray:none"
           id="circle15"
           rx="0.48269254"
           ry="0.47572672" /><ellipse
           cx="11.480906"
           cy="-2.1554704"
           stroke="#191919"
           stroke-width="0.35 px"
           style="fill:#4d4d4d;stroke-width:0.0295838;stroke-miterlimit:4;stroke-dasharray:none"
           id="circle16"
           rx="0.48269254"
           ry="0.47572672" /></g><g
         id="g6"
         transform="matrix(1.5772428,0,0,1.4644131,1.9258704,-0.28372358)"><g
           id="g2"
           transform="translate(-0.05372737,0.04688069)"><rect
             style="fill:#373737;stroke-width:0.0624698"
             id="rect1"
             width="0.30000001"
             height="1.5"
             x="-0.2085292"
             y="-0.98516154"
             transform="scale(1,-1)" /><rect
             style="fill:#373737;stroke-width:0.0911512"
             id="rect2"
             width="0.30000001"
             height="0.40000001"
             x="-0.88158166"
             y="-0.50795805"
             transform="matrix(0.67029209,-0.74209738,-0.74209738,-0.67029209,0,0)" /></g><g
           id="g4"
           transform="translate(0.64627263,0.04688069)"><rect
             style="fill:#373737;stroke-width:0.0624698"
             id="rect3"
             width="0.30000001"
             height="1.5"
             x="-0.2085292"
             y="-0.98516154"
             transform="scale(1,-1)" /><rect
             style="fill:#373737;stroke-width:0.0911512"
             id="rect4"
             width="0.30000001"
             height="0.40000001"
             x="-0.88158166"
             y="-0.50795805"
             transform="matrix(0.67029209,-0.74209738,-0.74209738,-0.67029209,0,0)" /></g></g><rect
         style="fill:#373737;stroke-width:0.138719"
         id="rect26"
         width="0.45484373"
         height="0.61103231"
         x="5.6315513"
         y="-11.715592"
         transform="matrix(0.69730331,-0.71677618,-0.76622315,-0.64257457,0,0)" /><g
         id="g40"><rect
           style="fill:#373737;stroke-width:0.0949404"
           id="rect25"
           width="0.47317287"
           height="2.1966197"
           x="12.912228"
           y="-3.4776125"
           transform="scale(1,-1)" /><g
           id="g36"><path
             style="fill:#cccccc;fill-opacity:1;stroke:#373737;stroke-width:0.45;stroke-linecap:butt;stroke-dasharray:none;stroke-dashoffset:0;stroke-opacity:1"
             id="path24"
             transform="matrix(0,1,1,0,0,0)"
             d="m 2.6665804,13.860471 a 0.60000002,0.5 0 0 1 0.6000001,0.5 0.60000002,0.5 0 0 1 -0.6000001,0.5"
             sodipodi:type="arc"
             sodipodi:arc-type="arc"
             sodipodi:open="true"
             sodipodi:start="4.712389"
             sodipodi:end="1.5707963"
             sodipodi:ry="0.5"
             sodipodi:rx="0.60000002"
             sodipodi:cy="14.360471"
             sodipodi:cx="2.6665804" /><rect
             style="fill:#373737;fill-opacity:1;stroke:none;stroke-width:0.455564;stroke-linecap:butt;stroke-dasharray:none;stroke-dashoffset:0;stroke-opacity:1"
             id="rect29"
             width="0.51030552"
             height="1.7694906"
             x="9.4968834"
             y="-14.869301"
             transform="matrix(0.52501194,-0.85109486,-0.66089684,-0.75047676,0,0)" /><rect
             style="fill:#373737;fill-opacity:1;stroke:none;stroke-width:0.455546;stroke-linecap:butt;stroke-dasharray:none;stroke-dashoffset:0;stroke-opacity:1"
             id="rect30"
             width="1.45"
             height="0.47299999"
             x="13.63547"
             y="-1.7686353"
             transform="scale(1,-1)" /></g></g><g
         id="g38"><rect
           style="fill:#373737;stroke-width:0.0949404"
           id="rect31"
           width="0.47317287"
           height="2.1966197"
           x="12.912228"
           y="0.91085547"
           transform="scale(1,-1)" /><rect
           style="fill:#373737;stroke-width:0.138719"
           id="rect32"
           width="0.45484373"
           height="0.61103231"
           x="9.0032692"
           y="-8.6471519"
           transform="matrix(0.69730331,-0.71677618,-0.76622315,-0.64257457,0,0)" /><g
           id="g37"
           transform="translate(-0.2310055)"><rect
             style="fill:#373737;stroke-width:0.0949404"
             id="rect34"
             width="0.47317287"
             height="2.1966197"
             x="14.601503"
             y="0.9277482"
             transform="scale(1,-1)" /><rect
             style="fill:#373737;stroke-width:0.0758312"
             id="rect35"
             width="0.47317287"
             height="1.4013565"
             x="1.9752918"
             y="-15.267833"
             transform="matrix(0,-1,-1,0,0,0)" /><rect
             style="fill:#373737;stroke-width:0.068666"
             id="rect36"
             width="0.44834816"
             height="1.2126644"
             x="-14.473395"
             y="0.11416796"
             transform="matrix(-0.98792314,0.15494471,0.1349926,0.99084661,0,0)" /></g></g></g></g></svg>
